<svg width="27" height="22" viewBox="0 0 27 22" fill="none" xmlns="http://www.w3.org/2000/svg">
<path d="M26.5835 2.75985C25.6093 3.19152 24.5628 3.48319 23.4626 3.61502C24.5978 2.93578 25.4471 1.86673 25.852 0.607352C24.7855 1.24084 23.6182 1.68675 22.401 1.92569C21.5824 1.05169 20.4982 0.472399 19.3167 0.277738C18.1352 0.0830774 16.9224 0.283942 15.8667 0.849147C14.8111 1.41435 13.9715 2.31227 13.4785 3.40351C12.9854 4.49474 12.8664 5.71823 13.14 6.88402C10.9789 6.77551 8.86487 6.21383 6.93497 5.23541C5.00506 4.25699 3.30245 2.88371 1.93764 1.20469C1.47097 2.00969 1.20264 2.94302 1.20264 3.93702C1.20212 4.83185 1.42248 5.71297 1.84416 6.50221C2.26585 7.29145 2.87583 7.9644 3.61997 8.46135C2.75696 8.43389 1.91299 8.2007 1.15831 7.78119V7.85119C1.15822 9.10622 1.59234 10.3226 2.38702 11.294C3.18169 12.2654 4.28797 12.9319 5.51814 13.1805C4.71755 13.3972 3.8782 13.4291 3.06347 13.2739C3.41055 14.3537 4.08663 15.2981 4.99707 15.9746C5.9075 16.6511 7.00671 17.0261 8.14081 17.0469C6.21561 18.5582 3.83801 19.378 1.39047 19.3744C0.956917 19.3745 0.523729 19.3491 0.0931396 19.2985C2.57753 20.8959 5.46954 21.7436 8.42314 21.7404C18.4215 21.7404 23.8873 13.4594 23.8873 6.27735C23.8873 6.04402 23.8815 5.80835 23.871 5.57502C24.9341 4.80616 25.8519 3.85406 26.5811 2.76335L26.5835 2.75985Z" fill="#B6CCDA"/>
</svg>
